<svg width="32" height="37" viewBox="0 0 32 37" fill="none" xmlns="http://www.w3.org/2000/svg">
<path d="M2.46154 2.46667C1.8087 2.46667 1.1826 2.72655 0.720968 3.18914C0.25934 3.65173 0 4.27913 0 4.93333V7.4C0 8.0542 0.25934 8.68161 0.720968 9.1442C1.1826 9.60679 1.8087 9.86667 2.46154 9.86667H3.69231V32.0667C3.69231 33.3751 4.21099 34.6299 5.13424 35.5551C6.0575 36.4802 7.3097 37 8.61538 37H23.3846C24.6903 37 25.9425 36.4802 26.8658 35.5551C27.789 34.6299 28.3077 33.3751 28.3077 32.0667V9.86667H29.5385C30.1913 9.86667 30.8174 9.60679 31.279 9.1442C31.7407 8.68161 32 8.0542 32 7.4V4.93333C32 4.27913 31.7407 3.65173 31.279 3.18914C30.8174 2.72655 30.1913 2.46667 29.5385 2.46667H20.9231C20.9231 1.81247 20.6637 1.18506 20.2021 0.72247C19.7405 0.25988 19.1144 0 18.4615 0L13.5385 0C12.8856 0 12.2595 0.25988 11.7979 0.72247C11.3363 1.18506 11.0769 1.81247 11.0769 2.46667H2.46154ZM9.84615 12.3333C10.1726 12.3333 10.4856 12.4633 10.7164 12.6946C10.9473 12.9259 11.0769 13.2396 11.0769 13.5667V30.8333C11.0769 31.1604 10.9473 31.4741 10.7164 31.7054C10.4856 31.9367 10.1726 32.0667 9.84615 32.0667C9.51973 32.0667 9.20668 31.9367 8.97587 31.7054C8.74506 31.4741 8.61538 31.1604 8.61538 30.8333V13.5667C8.61538 13.2396 8.74506 12.9259 8.97587 12.6946C9.20668 12.4633 9.51973 12.3333 9.84615 12.3333ZM16 12.3333C16.3264 12.3333 16.6395 12.4633 16.8703 12.6946C17.1011 12.9259 17.2308 13.2396 17.2308 13.5667V30.8333C17.2308 31.1604 17.1011 31.4741 16.8703 31.7054C16.6395 31.9367 16.3264 32.0667 16 32.0667C15.6736 32.0667 15.3605 31.9367 15.1297 31.7054C14.8989 31.4741 14.7692 31.1604 14.7692 30.8333V13.5667C14.7692 13.2396 14.8989 12.9259 15.1297 12.6946C15.3605 12.4633 15.6736 12.3333 16 12.3333ZM23.3846 13.5667V30.8333C23.3846 31.1604 23.2549 31.4741 23.0241 31.7054C22.7933 31.9367 22.4803 32.0667 22.1538 32.0667C21.8274 32.0667 21.5144 31.9367 21.2836 31.7054C21.0527 31.4741 20.9231 31.1604 20.9231 30.8333V13.5667C20.9231 13.2396 21.0527 12.9259 21.2836 12.6946C21.5144 12.4633 21.8274 12.3333 22.1538 12.3333C22.4803 12.3333 22.7933 12.4633 23.0241 12.6946C23.2549 12.9259 23.3846 13.2396 23.3846 13.5667Z" fill="#C2C2C2"/>
</svg>
