<svg width="27" height="28" viewBox="0 0 27 28" fill="none" xmlns="http://www.w3.org/2000/svg">
<path d="M15.7153 12.1776C14.5874 11.0501 13.0578 10.4167 11.463 10.4167C9.86815 10.4167 8.33861 11.0501 7.21066 12.1776L2.95697 16.4299C1.829 17.5579 1.19531 19.0877 1.19531 20.6829C1.19531 22.2781 1.829 23.808 2.95697 24.9359C4.08493 26.0639 5.61479 26.6976 7.20997 26.6976C8.80516 26.6976 10.335 26.0639 11.463 24.9359L13.5891 22.8098" stroke="#233A26" stroke-width="2" stroke-linecap="round" stroke-linejoin="round"/>
<path d="M11.4629 16.4299C12.5908 17.5574 14.1204 18.1908 15.7152 18.1908C17.31 18.1908 18.8396 17.5574 19.9675 16.4299L24.2212 12.1776C25.3492 11.0496 25.9829 9.51976 25.9829 7.92457C25.9829 6.32939 25.3492 4.79953 24.2212 3.67157C23.0933 2.5436 21.5634 1.90991 19.9682 1.90991C18.373 1.90991 16.8432 2.5436 15.7152 3.67157L13.589 5.79772" stroke="#233A26" stroke-width="2" stroke-linecap="round" stroke-linejoin="round"/>
</svg>
