<svg width="259" height="84" viewBox="0 0 259 84" fill="none" xmlns="http://www.w3.org/2000/svg">
<mask id="path-1-outside-1_1431_7060" maskUnits="userSpaceOnUse" x="0" y="2" width="154" height="82" fill="black">
<rect fill="white" y="2" width="154" height="82"/>
<path fill-rule="evenodd" clip-rule="evenodd" d="M80.8216 46.8344H86.4407L105.745 16.9801L125.05 46.8344H130.669L111.183 16.7095H131.122V12.0194H108.464V3H103.026V12.0194H80.3684V16.7095H100.217L80.8216 46.8344ZM145.623 48.4579H151.061V6.60776H145.623V24.376H126.772V29.0661H145.623V48.4579ZM80.8216 68.3908C80.8216 78.4925 87.0752 82.912 97.5885 82.912H135.654C146.167 82.912 152.421 78.4925 152.421 68.3908C152.421 58.289 146.167 53.8695 135.654 53.8695H97.5885C87.0752 53.8695 80.8216 58.289 80.8216 68.3908ZM86.2595 68.3908C86.2595 61.8066 89.5222 58.5596 97.5885 58.5596H135.654C143.72 58.5596 146.983 61.8066 146.983 68.3908C146.983 74.9749 143.72 78.2219 135.654 78.2219H97.5885C89.5222 78.2219 86.2595 74.9749 86.2595 68.3908ZM31.0023 6.60776H23.7517L2 45.0305H7.61919L27.377 10.1253L47.1348 45.0305H52.7539L31.0023 6.60776ZM66.8019 46.654H72.2398V6.60776H66.8019V46.654ZM3.35948 82.912H72.2398V52.0656H3.35948V82.912ZM8.7974 78.2219V56.7557H66.8019V78.2219H8.7974Z"/>
</mask>
<path fill-rule="evenodd" clip-rule="evenodd" d="M80.8216 46.8344H86.4407L105.745 16.9801L125.05 46.8344H130.669L111.183 16.7095H131.122V12.0194H108.464V3H103.026V12.0194H80.3684V16.7095H100.217L80.8216 46.8344ZM145.623 48.4579H151.061V6.60776H145.623V24.376H126.772V29.0661H145.623V48.4579ZM80.8216 68.3908C80.8216 78.4925 87.0752 82.912 97.5885 82.912H135.654C146.167 82.912 152.421 78.4925 152.421 68.3908C152.421 58.289 146.167 53.8695 135.654 53.8695H97.5885C87.0752 53.8695 80.8216 58.289 80.8216 68.3908ZM86.2595 68.3908C86.2595 61.8066 89.5222 58.5596 97.5885 58.5596H135.654C143.72 58.5596 146.983 61.8066 146.983 68.3908C146.983 74.9749 143.72 78.2219 135.654 78.2219H97.5885C89.5222 78.2219 86.2595 74.9749 86.2595 68.3908ZM31.0023 6.60776H23.7517L2 45.0305H7.61919L27.377 10.1253L47.1348 45.0305H52.7539L31.0023 6.60776ZM66.8019 46.654H72.2398V6.60776H66.8019V46.654ZM3.35948 82.912H72.2398V52.0656H3.35948V82.912ZM8.7974 78.2219V56.7557H66.8019V78.2219H8.7974Z" fill="black"/>
<path d="M86.4407 46.8344V47.8344H86.985L87.2805 47.3773L86.4407 46.8344ZM80.8216 46.8344L79.9808 46.293L78.9884 47.8344H80.8216V46.8344ZM105.745 16.9801L106.585 16.4371L105.745 15.1385L104.906 16.4371L105.745 16.9801ZM125.05 46.8344L124.21 47.3773L124.506 47.8344H125.05V46.8344ZM130.669 46.8344V47.8344H132.507L131.509 46.2912L130.669 46.8344ZM111.183 16.7095V15.7095H109.345L110.344 17.2526L111.183 16.7095ZM131.122 16.7095V17.7095H132.122V16.7095H131.122ZM131.122 12.0194H132.122V11.0194H131.122V12.0194ZM108.464 12.0194H107.464V13.0194H108.464V12.0194ZM108.464 3H109.464V2H108.464V3ZM103.026 3V2H102.026V3H103.026ZM103.026 12.0194V13.0194H104.026V12.0194H103.026ZM80.3684 12.0194V11.0194H79.3684V12.0194H80.3684ZM80.3684 16.7095H79.3684V17.7095H80.3684V16.7095ZM100.217 16.7095L101.058 17.2508L102.05 15.7095H100.217V16.7095ZM151.061 48.4579V49.4579H152.061V48.4579H151.061ZM145.623 48.4579H144.623V49.4579H145.623V48.4579ZM151.061 6.60776H152.061V5.60776H151.061V6.60776ZM145.623 6.60776V5.60776H144.623V6.60776H145.623ZM145.623 24.376V25.376H146.623V24.376H145.623ZM126.772 24.376V23.376H125.772V24.376H126.772ZM126.772 29.0661H125.772V30.0661H126.772V29.0661ZM145.623 29.0661H146.623V28.0661H145.623V29.0661ZM23.7517 6.60776V5.60776H23.1687L22.8815 6.11511L23.7517 6.60776ZM31.0023 6.60776L31.8725 6.11511L31.5853 5.60776H31.0023V6.60776ZM2 45.0305L1.12977 44.5378L0.28476 46.0305H2V45.0305ZM7.61919 45.0305V46.0305H8.20223L8.48944 45.5231L7.61919 45.0305ZM27.377 10.1253L28.2472 9.63274L27.377 8.0953L26.5067 9.63274L27.377 10.1253ZM47.1348 45.0305L46.2645 45.5231L46.5517 46.0305H47.1348V45.0305ZM52.7539 45.0305V46.0305H54.4692L53.6242 44.5378L52.7539 45.0305ZM72.2398 46.654V47.654H73.2398V46.654H72.2398ZM66.8019 46.654H65.8019V47.654H66.8019V46.654ZM72.2398 6.60776H73.2398V5.60776H72.2398V6.60776ZM66.8019 6.60776V5.60776H65.8019V6.60776H66.8019ZM72.2398 82.912V83.912H73.2398V82.912H72.2398ZM3.35948 82.912H2.35948V83.912H3.35948V82.912ZM72.2398 52.0656H73.2398V51.0656H72.2398V52.0656ZM3.35948 52.0656V51.0656H2.35948V52.0656H3.35948ZM8.7974 56.7557V55.7557H7.7974V56.7557H8.7974ZM8.7974 78.2219H7.7974V79.2219H8.7974V78.2219ZM66.8019 56.7557H67.8019V55.7557H66.8019V56.7557ZM66.8019 78.2219V79.2219H67.8019V78.2219H66.8019ZM86.4407 45.8344H80.8216V47.8344H86.4407V45.8344ZM104.906 16.4371L85.601 46.2914L87.2805 47.3773L106.585 17.5231L104.906 16.4371ZM125.89 46.2914L106.585 16.4371L104.906 17.5231L124.21 47.3773L125.89 46.2914ZM130.669 45.8344H125.05V47.8344H130.669V45.8344ZM110.344 17.2526L129.83 47.3775L131.509 46.2912L112.023 16.1664L110.344 17.2526ZM131.122 15.7095H111.183V17.7095H131.122V15.7095ZM130.122 12.0194V16.7095H132.122V12.0194H130.122ZM108.464 13.0194H131.122V11.0194H108.464V13.0194ZM107.464 3V12.0194H109.464V3H107.464ZM103.026 4H108.464V2H103.026V4ZM104.026 12.0194V3H102.026V12.0194H104.026ZM80.3684 13.0194H103.026V11.0194H80.3684V13.0194ZM81.3684 16.7095V12.0194H79.3684V16.7095H81.3684ZM100.217 15.7095H80.3684V17.7095H100.217V15.7095ZM81.6624 47.3757L101.058 17.2508L99.376 16.1682L79.9808 46.293L81.6624 47.3757ZM151.061 47.4579H145.623V49.4579H151.061V47.4579ZM150.061 6.60776V48.4579H152.061V6.60776H150.061ZM145.623 7.60776H151.061V5.60776H145.623V7.60776ZM146.623 24.376V6.60776H144.623V24.376H146.623ZM126.772 25.376H145.623V23.376H126.772V25.376ZM127.772 29.0661V24.376H125.772V29.0661H127.772ZM145.623 28.0661H126.772V30.0661H145.623V28.0661ZM146.623 48.4579V29.0661H144.623V48.4579H146.623ZM97.5885 81.912C92.4482 81.912 88.524 80.8281 85.8979 78.6673C83.308 76.5364 81.8216 73.225 81.8216 68.3908H79.8216C79.8216 73.6583 81.4619 77.6075 84.6272 80.2118C87.7561 82.7862 92.2154 83.912 97.5885 83.912V81.912ZM135.654 81.912H97.5885V83.912H135.654V81.912ZM151.421 68.3908C151.421 73.225 149.934 76.5364 147.345 78.6673C144.718 80.8281 140.794 81.912 135.654 81.912V83.912C141.027 83.912 145.486 82.7862 148.615 80.2118C151.781 77.6075 153.421 73.6583 153.421 68.3908H151.421ZM135.654 54.8695C140.794 54.8695 144.718 55.9535 147.345 58.1142C149.934 60.2451 151.421 63.5565 151.421 68.3908H153.421C153.421 63.1232 151.781 59.1741 148.615 56.5698C145.486 53.9953 141.027 52.8695 135.654 52.8695V54.8695ZM97.5885 54.8695H135.654V52.8695H97.5885V54.8695ZM81.8216 68.3908C81.8216 63.5565 83.308 60.2451 85.8979 58.1142C88.524 55.9535 92.4482 54.8695 97.5885 54.8695V52.8695C92.2154 52.8695 87.7561 53.9953 84.6272 56.5698C81.4619 59.1741 79.8216 63.1232 79.8216 68.3908H81.8216ZM97.5885 57.5596C93.452 57.5596 90.3232 58.3869 88.2317 60.2614C86.1149 62.1587 85.2595 64.9457 85.2595 68.3908H87.2595C87.2595 65.2516 88.0355 63.1231 89.5666 61.7508C91.123 60.3558 93.6587 59.5596 97.5885 59.5596V57.5596ZM135.654 57.5596H97.5885V59.5596H135.654V57.5596ZM147.983 68.3908C147.983 64.9457 147.128 62.1587 145.011 60.2614C142.919 58.3869 139.79 57.5596 135.654 57.5596V59.5596C139.584 59.5596 142.119 60.3558 143.676 61.7508C145.207 63.1231 145.983 65.2516 145.983 68.3908H147.983ZM135.654 79.2219C139.79 79.2219 142.919 78.3946 145.011 76.5201C147.128 74.6228 147.983 71.8358 147.983 68.3908H145.983C145.983 71.5299 145.207 73.6585 143.676 75.0307C142.119 76.4257 139.584 77.2219 135.654 77.2219V79.2219ZM97.5885 79.2219H135.654V77.2219H97.5885V79.2219ZM85.2595 68.3908C85.2595 71.8358 86.1149 74.6228 88.2317 76.5201C90.3232 78.3946 93.452 79.2219 97.5885 79.2219V77.2219C93.6587 77.2219 91.123 76.4257 89.5666 75.0307C88.0355 73.6585 87.2595 71.5299 87.2595 68.3908H85.2595ZM23.7517 7.60776H31.0023V5.60776H23.7517V7.60776ZM2.87023 45.5231L24.6219 7.10041L22.8815 6.11511L1.12977 44.5378L2.87023 45.5231ZM7.61919 44.0305H2V46.0305H7.61919V44.0305ZM26.5067 9.63274L6.74893 44.5379L8.48944 45.5231L28.2472 10.6179L26.5067 9.63274ZM48.005 44.5379L28.2472 9.63274L26.5067 10.6179L46.2645 45.5231L48.005 44.5379ZM52.7539 44.0305H47.1348V46.0305H52.7539V44.0305ZM30.132 7.10041L51.8837 45.5231L53.6242 44.5378L31.8725 6.11511L30.132 7.10041ZM72.2398 45.654H66.8019V47.654H72.2398V45.654ZM71.2398 6.60776V46.654H73.2398V6.60776H71.2398ZM66.8019 7.60776H72.2398V5.60776H66.8019V7.60776ZM67.8019 46.654V6.60776H65.8019V46.654H67.8019ZM72.2398 81.912H3.35948V83.912H72.2398V81.912ZM71.2398 52.0656V82.912H73.2398V52.0656H71.2398ZM3.35948 53.0656H72.2398V51.0656H3.35948V53.0656ZM4.35948 82.912V52.0656H2.35948V82.912H4.35948ZM7.7974 56.7557V78.2219H9.7974V56.7557H7.7974ZM66.8019 55.7557H8.7974V57.7557H66.8019V55.7557ZM67.8019 78.2219V56.7557H65.8019V78.2219H67.8019ZM8.7974 79.2219H66.8019V77.2219H8.7974V79.2219Z" fill="black" mask="url(#path-1-outside-1_1431_7060)"/>
<path fill-rule="evenodd" clip-rule="evenodd" d="M193.721 9.79924L194.708 7.32608C197.109 10.0405 201.564 9.96508 203.851 7.09979C206.138 9.96382 210.592 10.0391 212.993 7.32568L213.98 9.79924H218.286L215.041 1.66292C214.371 -0.0158131 211.995 -0.0158154 211.325 1.66292L210.375 4.04675C209.705 5.72549 207.329 5.72549 206.659 4.04675L205.708 1.66292C205.039 -0.0158148 202.663 -0.0158124 201.993 1.66292L201.042 4.04781C200.372 5.72655 197.996 5.72655 197.326 4.04781L196.375 1.66292C195.706 -0.0158109 193.329 -0.0158132 192.66 1.66292L189.415 9.79924L193.721 9.79924Z" fill="#66BB6A"/>
<path d="M222.305 68.2513C213.431 82.6263 192.428 82.6263 183.554 68.2513L170.136 46.5155C160.845 31.4658 171.712 12.0677 189.511 12.0677L216.348 12.0677C234.147 12.0677 245.014 31.4658 235.723 46.5155L222.305 68.2513Z" stroke="#F36E67" stroke-width="5"/>
<mask id="path-5-outside-2_1431_7060" maskUnits="userSpaceOnUse" x="251.562" y="5.58734" width="8" height="79" fill="black">
<rect fill="white" x="251.562" y="5.58734" width="8" height="79"/>
<path fill-rule="evenodd" clip-rule="evenodd" d="M252.562 82.8916H258V6.58734H252.562V82.8916Z"/>
</mask>
<path fill-rule="evenodd" clip-rule="evenodd" d="M252.562 82.8916H258V6.58734H252.562V82.8916Z" fill="black"/>
<path d="M258 82.8916V83.5916H258.7V82.8916H258ZM252.562 82.8916H251.862V83.5916H252.562V82.8916ZM258 6.58734H258.7V5.88734H258V6.58734ZM252.562 6.58734V5.88734H251.862V6.58734H252.562ZM258 82.1916H252.562V83.5916H258V82.1916ZM257.3 6.58734V82.8916H258.7V6.58734H257.3ZM252.562 7.28734H258V5.88734H252.562V7.28734ZM253.262 82.8916V6.58734H251.862V82.8916H253.262Z" fill="black" mask="url(#path-5-outside-2_1431_7060)"/>
<mask id="path-7-outside-3_1431_7060" maskUnits="userSpaceOnUse" x="0" y="2" width="154" height="82" fill="black">
<rect fill="white" y="2" width="154" height="82"/>
<path fill-rule="evenodd" clip-rule="evenodd" d="M80.8216 46.8344H86.4407L105.745 16.9801L125.05 46.8344H130.669L111.183 16.7095H131.122V12.0194H108.464V3H103.026V12.0194H80.3684V16.7095H100.217L80.8216 46.8344ZM145.623 48.4579H151.061V6.60776H145.623V24.376H126.772V29.0661H145.623V48.4579ZM80.8216 68.3908C80.8216 78.4925 87.0752 82.912 97.5885 82.912H135.654C146.167 82.912 152.421 78.4925 152.421 68.3908C152.421 58.289 146.167 53.8695 135.654 53.8695H97.5885C87.0752 53.8695 80.8216 58.289 80.8216 68.3908ZM86.2595 68.3908C86.2595 61.8066 89.5222 58.5596 97.5885 58.5596H135.654C143.72 58.5596 146.983 61.8066 146.983 68.3908C146.983 74.9749 143.72 78.2219 135.654 78.2219H97.5885C89.5222 78.2219 86.2595 74.9749 86.2595 68.3908ZM31.0023 6.60776H23.7517L2 45.0305H7.61919L27.377 10.1253L47.1348 45.0305H52.7539L31.0023 6.60776ZM66.8019 46.654H72.2398V6.60776H66.8019V46.654ZM3.35948 82.912H72.2398V52.0656H3.35948V82.912ZM8.7974 78.2219V56.7557H66.8019V78.2219H8.7974Z"/>
</mask>
<path fill-rule="evenodd" clip-rule="evenodd" d="M80.8216 46.8344H86.4407L105.745 16.9801L125.05 46.8344H130.669L111.183 16.7095H131.122V12.0194H108.464V3H103.026V12.0194H80.3684V16.7095H100.217L80.8216 46.8344ZM145.623 48.4579H151.061V6.60776H145.623V24.376H126.772V29.0661H145.623V48.4579ZM80.8216 68.3908C80.8216 78.4925 87.0752 82.912 97.5885 82.912H135.654C146.167 82.912 152.421 78.4925 152.421 68.3908C152.421 58.289 146.167 53.8695 135.654 53.8695H97.5885C87.0752 53.8695 80.8216 58.289 80.8216 68.3908ZM86.2595 68.3908C86.2595 61.8066 89.5222 58.5596 97.5885 58.5596H135.654C143.72 58.5596 146.983 61.8066 146.983 68.3908C146.983 74.9749 143.72 78.2219 135.654 78.2219H97.5885C89.5222 78.2219 86.2595 74.9749 86.2595 68.3908ZM31.0023 6.60776H23.7517L2 45.0305H7.61919L27.377 10.1253L47.1348 45.0305H52.7539L31.0023 6.60776ZM66.8019 46.654H72.2398V6.60776H66.8019V46.654ZM3.35948 82.912H72.2398V52.0656H3.35948V82.912ZM8.7974 78.2219V56.7557H66.8019V78.2219H8.7974Z" fill="black"/>
<path d="M86.4407 46.8344V47.8344H86.985L87.2805 47.3773L86.4407 46.8344ZM80.8216 46.8344L79.9808 46.293L78.9884 47.8344H80.8216V46.8344ZM105.745 16.9801L106.585 16.4371L105.745 15.1385L104.906 16.4371L105.745 16.9801ZM125.05 46.8344L124.21 47.3773L124.506 47.8344H125.05V46.8344ZM130.669 46.8344V47.8344H132.507L131.509 46.2912L130.669 46.8344ZM111.183 16.7095V15.7095H109.345L110.344 17.2526L111.183 16.7095ZM131.122 16.7095V17.7095H132.122V16.7095H131.122ZM131.122 12.0194H132.122V11.0194H131.122V12.0194ZM108.464 12.0194H107.464V13.0194H108.464V12.0194ZM108.464 3H109.464V2H108.464V3ZM103.026 3V2H102.026V3H103.026ZM103.026 12.0194V13.0194H104.026V12.0194H103.026ZM80.3684 12.0194V11.0194H79.3684V12.0194H80.3684ZM80.3684 16.7095H79.3684V17.7095H80.3684V16.7095ZM100.217 16.7095L101.058 17.2508L102.05 15.7095H100.217V16.7095ZM151.061 48.4579V49.4579H152.061V48.4579H151.061ZM145.623 48.4579H144.623V49.4579H145.623V48.4579ZM151.061 6.60776H152.061V5.60776H151.061V6.60776ZM145.623 6.60776V5.60776H144.623V6.60776H145.623ZM145.623 24.376V25.376H146.623V24.376H145.623ZM126.772 24.376V23.376H125.772V24.376H126.772ZM126.772 29.0661H125.772V30.0661H126.772V29.0661ZM145.623 29.0661H146.623V28.0661H145.623V29.0661ZM23.7517 6.60776V5.60776H23.1687L22.8815 6.11511L23.7517 6.60776ZM31.0023 6.60776L31.8725 6.11511L31.5853 5.60776H31.0023V6.60776ZM2 45.0305L1.12977 44.5378L0.28476 46.0305H2V45.0305ZM7.61919 45.0305V46.0305H8.20223L8.48944 45.5231L7.61919 45.0305ZM27.377 10.1253L28.2472 9.63274L27.377 8.0953L26.5067 9.63274L27.377 10.1253ZM47.1348 45.0305L46.2645 45.5231L46.5517 46.0305H47.1348V45.0305ZM52.7539 45.0305V46.0305H54.4692L53.6242 44.5378L52.7539 45.0305ZM72.2398 46.654V47.654H73.2398V46.654H72.2398ZM66.8019 46.654H65.8019V47.654H66.8019V46.654ZM72.2398 6.60776H73.2398V5.60776H72.2398V6.60776ZM66.8019 6.60776V5.60776H65.8019V6.60776H66.8019ZM72.2398 82.912V83.912H73.2398V82.912H72.2398ZM3.35948 82.912H2.35948V83.912H3.35948V82.912ZM72.2398 52.0656H73.2398V51.0656H72.2398V52.0656ZM3.35948 52.0656V51.0656H2.35948V52.0656H3.35948ZM8.7974 56.7557V55.7557H7.7974V56.7557H8.7974ZM8.7974 78.2219H7.7974V79.2219H8.7974V78.2219ZM66.8019 56.7557H67.8019V55.7557H66.8019V56.7557ZM66.8019 78.2219V79.2219H67.8019V78.2219H66.8019ZM86.4407 45.8344H80.8216V47.8344H86.4407V45.8344ZM104.906 16.4371L85.601 46.2914L87.2805 47.3773L106.585 17.5231L104.906 16.4371ZM125.89 46.2914L106.585 16.4371L104.906 17.5231L124.21 47.3773L125.89 46.2914ZM130.669 45.8344H125.05V47.8344H130.669V45.8344ZM110.344 17.2526L129.83 47.3775L131.509 46.2912L112.023 16.1664L110.344 17.2526ZM131.122 15.7095H111.183V17.7095H131.122V15.7095ZM130.122 12.0194V16.7095H132.122V12.0194H130.122ZM108.464 13.0194H131.122V11.0194H108.464V13.0194ZM107.464 3V12.0194H109.464V3H107.464ZM103.026 4H108.464V2H103.026V4ZM104.026 12.0194V3H102.026V12.0194H104.026ZM80.3684 13.0194H103.026V11.0194H80.3684V13.0194ZM81.3684 16.7095V12.0194H79.3684V16.7095H81.3684ZM100.217 15.7095H80.3684V17.7095H100.217V15.7095ZM81.6624 47.3757L101.058 17.2508L99.376 16.1682L79.9808 46.293L81.6624 47.3757ZM151.061 47.4579H145.623V49.4579H151.061V47.4579ZM150.061 6.60776V48.4579H152.061V6.60776H150.061ZM145.623 7.60776H151.061V5.60776H145.623V7.60776ZM146.623 24.376V6.60776H144.623V24.376H146.623ZM126.772 25.376H145.623V23.376H126.772V25.376ZM127.772 29.0661V24.376H125.772V29.0661H127.772ZM145.623 28.0661H126.772V30.0661H145.623V28.0661ZM146.623 48.4579V29.0661H144.623V48.4579H146.623ZM97.5885 81.912C92.4482 81.912 88.524 80.8281 85.8979 78.6673C83.308 76.5364 81.8216 73.225 81.8216 68.3908H79.8216C79.8216 73.6583 81.4619 77.6075 84.6272 80.2118C87.7561 82.7862 92.2154 83.912 97.5885 83.912V81.912ZM135.654 81.912H97.5885V83.912H135.654V81.912ZM151.421 68.3908C151.421 73.225 149.934 76.5364 147.345 78.6673C144.718 80.8281 140.794 81.912 135.654 81.912V83.912C141.027 83.912 145.486 82.7862 148.615 80.2118C151.781 77.6075 153.421 73.6583 153.421 68.3908H151.421ZM135.654 54.8695C140.794 54.8695 144.718 55.9535 147.345 58.1142C149.934 60.2451 151.421 63.5565 151.421 68.3908H153.421C153.421 63.1232 151.781 59.1741 148.615 56.5698C145.486 53.9953 141.027 52.8695 135.654 52.8695V54.8695ZM97.5885 54.8695H135.654V52.8695H97.5885V54.8695ZM81.8216 68.3908C81.8216 63.5565 83.308 60.2451 85.8979 58.1142C88.524 55.9535 92.4482 54.8695 97.5885 54.8695V52.8695C92.2154 52.8695 87.7561 53.9953 84.6272 56.5698C81.4619 59.1741 79.8216 63.1232 79.8216 68.3908H81.8216ZM97.5885 57.5596C93.452 57.5596 90.3232 58.3869 88.2317 60.2614C86.1149 62.1587 85.2595 64.9457 85.2595 68.3908H87.2595C87.2595 65.2516 88.0355 63.1231 89.5666 61.7508C91.123 60.3558 93.6587 59.5596 97.5885 59.5596V57.5596ZM135.654 57.5596H97.5885V59.5596H135.654V57.5596ZM147.983 68.3908C147.983 64.9457 147.128 62.1587 145.011 60.2614C142.919 58.3869 139.79 57.5596 135.654 57.5596V59.5596C139.584 59.5596 142.119 60.3558 143.676 61.7508C145.207 63.1231 145.983 65.2516 145.983 68.3908H147.983ZM135.654 79.2219C139.79 79.2219 142.919 78.3946 145.011 76.5201C147.128 74.6228 147.983 71.8358 147.983 68.3908H145.983C145.983 71.5299 145.207 73.6585 143.676 75.0307C142.119 76.4257 139.584 77.2219 135.654 77.2219V79.2219ZM97.5885 79.2219H135.654V77.2219H97.5885V79.2219ZM85.2595 68.3908C85.2595 71.8358 86.1149 74.6228 88.2317 76.5201C90.3232 78.3946 93.452 79.2219 97.5885 79.2219V77.2219C93.6587 77.2219 91.123 76.4257 89.5666 75.0307C88.0355 73.6585 87.2595 71.5299 87.2595 68.3908H85.2595ZM23.7517 7.60776H31.0023V5.60776H23.7517V7.60776ZM2.87023 45.5231L24.6219 7.10041L22.8815 6.11511L1.12977 44.5378L2.87023 45.5231ZM7.61919 44.0305H2V46.0305H7.61919V44.0305ZM26.5067 9.63274L6.74893 44.5379L8.48944 45.5231L28.2472 10.6179L26.5067 9.63274ZM48.005 44.5379L28.2472 9.63274L26.5067 10.6179L46.2645 45.5231L48.005 44.5379ZM52.7539 44.0305H47.1348V46.0305H52.7539V44.0305ZM30.132 7.10041L51.8837 45.5231L53.6242 44.5378L31.8725 6.11511L30.132 7.10041ZM72.2398 45.654H66.8019V47.654H72.2398V45.654ZM71.2398 6.60776V46.654H73.2398V6.60776H71.2398ZM66.8019 7.60776H72.2398V5.60776H66.8019V7.60776ZM67.8019 46.654V6.60776H65.8019V46.654H67.8019ZM72.2398 81.912H3.35948V83.912H72.2398V81.912ZM71.2398 52.0656V82.912H73.2398V52.0656H71.2398ZM3.35948 53.0656H72.2398V51.0656H3.35948V53.0656ZM4.35948 82.912V52.0656H2.35948V82.912H4.35948ZM7.7974 56.7557V78.2219H9.7974V56.7557H7.7974ZM66.8019 55.7557H8.7974V57.7557H66.8019V55.7557ZM67.8019 78.2219V56.7557H65.8019V78.2219H67.8019ZM8.7974 79.2219H66.8019V77.2219H8.7974V79.2219Z" fill="black" mask="url(#path-7-outside-3_1431_7060)"/>
<path fill-rule="evenodd" clip-rule="evenodd" d="M201.993 1.66292C202.248 1.02288 202.752 0.626859 203.314 0.474869C203.351 0.464768 203.389 0.455745 203.427 0.447799C203.705 0.389282 203.995 0.389227 204.274 0.447635C204.312 0.455552 204.349 0.464544 204.387 0.474609C204.949 0.626407 205.453 1.02251 205.708 1.66292L205.956 2.28451L206.411 3.42517L206.659 4.04676C206.915 4.68717 207.418 5.08327 207.981 5.23506C208.018 5.24513 208.056 5.25412 208.094 5.26204C208.372 5.32039 208.662 5.32039 208.94 5.26204C208.978 5.25412 209.015 5.24513 209.053 5.23506C209.615 5.08327 210.119 4.68716 210.375 4.04676L210.623 3.42517L211.078 2.28451L211.325 1.66292C211.581 1.02251 212.085 0.626407 212.647 0.474609C212.685 0.464543 212.722 0.455552 212.76 0.447634C213.646 0.261966 214.644 0.667062 215.041 1.66292L215.744 3.42516L216.745 5.93469L216.951 6.45274L218.286 9.79924L189.415 9.79924L190.749 6.45274L190.956 5.93469L191.957 3.42517L192.66 1.66292C193.057 0.66677 194.055 0.26173 194.941 0.447801C194.979 0.455746 195.017 0.464769 195.054 0.474871C195.617 0.626861 196.12 1.02288 196.375 1.66292L196.624 2.28557L197.078 3.42517L197.326 4.04782C197.582 4.68786 198.085 5.08388 198.647 5.23586C198.685 5.24597 198.722 5.25499 198.76 5.26294C199.039 5.32151 199.329 5.32151 199.608 5.26294C199.646 5.25499 199.684 5.24597 199.721 5.23586C200.283 5.08387 200.787 4.68786 201.042 4.04781L201.29 3.42516L201.745 2.28557L201.993 1.66292Z" fill="#66BB6A"/>
<path d="M220.603 67.2007C212.51 80.3099 193.349 80.3098 185.256 67.2007L171.838 45.4649C163.378 31.7623 173.261 14.0677 189.511 14.0677L216.348 14.0677C232.598 14.0677 242.481 31.7623 234.022 45.4649L220.603 67.2007Z" stroke="#F36E67" stroke-width="9"/>
<mask id="path-11-outside-4_1431_7060" maskUnits="userSpaceOnUse" x="251.562" y="5.58734" width="8" height="79" fill="black">
<rect fill="white" x="251.562" y="5.58734" width="8" height="79"/>
<path fill-rule="evenodd" clip-rule="evenodd" d="M252.562 82.8916H258V6.58734H252.562V82.8916Z"/>
</mask>
<path fill-rule="evenodd" clip-rule="evenodd" d="M252.562 82.8916H258V6.58734H252.562V82.8916Z" fill="black"/>
<path d="M258 82.8916V83.8916H259V82.8916H258ZM252.562 82.8916H251.562V83.8916H252.562V82.8916ZM258 6.58734H259V5.58734H258V6.58734ZM252.562 6.58734V5.58734H251.562V6.58734H252.562ZM258 81.8916H252.562V83.8916H258V81.8916ZM257 6.58734V82.8916H259V6.58734H257ZM252.562 7.58734H258V5.58734H252.562V7.58734ZM253.562 82.8916V6.58734H251.562V82.8916H253.562Z" fill="black" mask="url(#path-11-outside-4_1431_7060)"/>
</svg>
