<svg width="17" height="17" viewBox="0 0 17 17" fill="none" xmlns="http://www.w3.org/2000/svg">
<path d="M7.08331 8.49992C7.08331 8.87564 7.23257 9.23598 7.49825 9.50165C7.76392 9.76733 8.12426 9.91658 8.49998 9.91658C8.8757 9.91658 9.23604 9.76733 9.50171 9.50165C9.76739 9.23598 9.91665 8.87564 9.91665 8.49992C9.91665 8.12419 9.76739 7.76386 9.50171 7.49818C9.23604 7.23251 8.8757 7.08325 8.49998 7.08325C8.12426 7.08325 7.76392 7.23251 7.49825 7.49818C7.23257 7.76386 7.08331 8.12419 7.08331 8.49992ZM7.08331 4.24992C7.08331 4.62564 7.23257 4.98598 7.49825 5.25165C7.76392 5.51733 8.12426 5.66658 8.49998 5.66658C8.8757 5.66658 9.23604 5.51733 9.50171 5.25165C9.76739 4.98598 9.91665 4.62564 9.91665 4.24992C9.91665 3.8742 9.76739 3.51386 9.50171 3.24818C9.23604 2.98251 8.8757 2.83325 8.49998 2.83325C8.12426 2.83325 7.76392 2.98251 7.49825 3.24818C7.23257 3.51386 7.08331 3.8742 7.08331 4.24992ZM7.08331 12.7499C7.08331 13.1256 7.23257 13.486 7.49825 13.7517C7.76392 14.0173 8.12426 14.1666 8.49998 14.1666C8.8757 14.1666 9.23604 14.0173 9.50171 13.7517C9.76739 13.486 9.91665 13.1256 9.91665 12.7499C9.91665 12.3742 9.76739 12.0139 9.50171 11.7482C9.23604 11.4825 8.8757 11.3333 8.49998 11.3333C8.12426 11.3333 7.76392 11.4825 7.49825 11.7482C7.23257 12.0139 7.08331 12.3742 7.08331 12.7499Z" fill="#C2C2C2"/>
</svg>
