<svg width="28" height="28" viewBox="0 0 28 28" fill="none" xmlns="http://www.w3.org/2000/svg">
<path d="M19.039 3.47792C17.449 1.88792 14.765 2.35392 13.803 4.38492L11.25 9.77492C11.0576 10.181 10.7164 10.4975 10.297 10.6589L6.167 12.2469C5.89477 12.3515 5.65298 12.5224 5.46362 12.7442C5.27426 12.966 5.14332 13.2316 5.08271 13.5168C5.0221 13.8021 5.03374 14.098 5.11658 14.3776C5.19941 14.6572 5.3508 14.9117 5.557 15.1179L8.69 18.2499L3 23.9399V24.9999H4.06L9.75 19.3099L12.882 22.4419C13.0882 22.6479 13.3426 22.7991 13.6221 22.8818C13.9016 22.9645 14.1974 22.9761 14.4825 22.9155C14.7676 22.8549 15.033 22.724 15.2547 22.5348C15.4764 22.3456 15.6474 22.104 15.752 21.8319L17.341 17.7019C17.502 17.2829 17.819 16.9419 18.225 16.7489L23.615 14.1959C25.646 13.2339 26.111 10.5499 24.522 8.96092L19.039 3.47792Z" fill="#EEC3B3"/>
</svg>
