<svg width="32" height="32" viewBox="0 0 32 32" fill="none" xmlns="http://www.w3.org/2000/svg">
<path d="M11.2779 4.07161C11.3899 4.11888 11.4913 4.18809 11.5761 4.27518L21.9401 14.9072C22.1221 15.0939 22.224 15.3444 22.224 15.6052C22.224 15.866 22.1221 16.1164 21.9401 16.3032L11.5761 26.9392C11.4926 27.0249 11.3931 27.0933 11.2831 27.1405C11.1732 27.1877 11.055 27.2128 10.9354 27.2143C10.8158 27.2158 10.697 27.1936 10.586 27.1492C10.4749 27.1047 10.3737 27.0388 10.2881 26.9552C10.1983 26.8675 10.1266 26.7629 10.0772 26.6475C10.0277 26.5321 10.0015 26.408 10.0001 26.2825C9.99857 26.1569 10.0218 26.0323 10.0685 25.9158C10.1152 25.7992 10.1844 25.693 10.2721 25.6032L20.0181 15.6052L10.2721 5.60918C10.0982 5.43068 10.001 5.19135 10.001 4.94218C10.001 4.69301 10.0982 4.45368 10.2721 4.27518C10.3569 4.18809 10.4583 4.11888 10.5702 4.07161C10.6822 4.02435 10.8025 4 10.9241 4C11.0456 4 11.166 4.02435 11.2779 4.07161Z" fill="#C2C2C2"/>
</svg>
